<svg xmlns="http://www.w3.org/2000/svg" viewBox="0 0 240 240">
  <defs>
    <linearGradient id="g" x1="0" y1="0" x2="0" y2="1">
      <stop offset="0" stop-color="#b4875c"/>
      <stop offset="1" stop-color="#a67b4f"/>
    </linearGradient>
  </defs>
  <rect x="12" y="12" width="216" height="216" rx="44" fill="url(#g)"/>
  <path fill="#f7f2eb" d="M120 62c-14 9-31 25-31 51 0 24 17 44 31 51 14-7 31-27 31-51 0-26-17-42-31-51zm0 83c-9-7-17-19-17-32 0-16 11-27 17-32 6 5 17 16 17 32 0 13-8 25-17 32z"/>
  <path fill="#f7f2eb" d="M93 149c-18 9-32 20-39 28 4 6 11 11 20 14 11-12 25-23 46-29-11-3-20-8-27-13zm54 0c-7 5-16 10-27 13 21 6 35 17 46 29 9-3 16-8 20-14-7-8-21-19-39-28z"/>
  <circle cx="120" cy="56" r="9" fill="#f7f2eb"/>
  <path fill="#f7f2eb" d="M120 36c3 0 6 2 6 5v8h-12v-8c0-3 3-5 6-5z"/>
  <path fill="none" stroke="#f7f2eb" stroke-width="6" stroke-linecap="round" d="M120 40v-8m-20 30-10-14m50 14 10-14"/>
  <path fill="#f7f2eb" d="M120 120c-7 0-12 5-12 12s5 12 12 12 12-5 12-12-5-12-12-12z"/>
</svg>
